<svg xmlns="http://www.w3.org/2000/svg" width="370" height="101" viewBox="0 0 370 101" fill="none">
  <path d="M0 41.9806C8.83333 42.3139 28.5 49.6806 36.5 76.4806C38.5 80.814 43.9 87.6806 49.5 80.4806C51.3333 79.814 56.4 81.2806 62 92.4806C65 97.6473 71.9 105.681 75.5 96.4806C82.5 81.1473 98.1 53.0806 104.5 63.4806C108 65.3139 115.7 66.2806 118.5 55.4806C120.667 51.3139 126 45.4806 130 55.4806C132.5 63.9806 139.2 75.8806 146 55.4806C147.167 47.6473 151.3 35.4806 158.5 49.4806C160.333 54.8139 165.7 63.4806 172.5 55.4806C181 45.4806 184.5 58.4806 188 67.4806C190.333 70.8139 195.8 74.6806 199 63.4806C201.333 56.8139 207.7 45.8806 214.5 55.4806C217.167 59.4806 224.2 63.8806 231 49.4806C232.5 46.9806 236.6 41.9806 241 41.9806C244 40.4806 251.2 33.2806 256 16.4806C258.333 8.64728 264 -3.51938 268 10.4806C269.333 18.1471 274.7 31.18 285.5 21.9803C288.833 17.147 296.6 6.78029 301 3.98029C303 0.313625 310.3 -4.11971 323.5 7.48029C325.667 10.4804 332.5 16.4806 342.5 16.4806C348.833 20.6474 363.8 26.4809 373 16.4806C378 13.8139 389 12.5804 393 28.9805C396.333 35.8138 404.1 45.8805 408.5 31.4805C410.333 24.3139 417.2 16.3807 430 41.9806" fill="black"/>
  <path d="M0 41.9806C8.83333 42.3139 28.5 49.6806 36.5 76.4806C38.5 80.814 43.9 87.6806 49.5 80.4806C51.3333 79.814 56.4 81.2806 62 92.4806C65 97.6473 71.9 105.681 75.5 96.4806C82.5 81.1473 98.1 53.0806 104.5 63.4806C108 65.3139 115.7 66.2806 118.5 55.4806C120.667 51.3139 126 45.4806 130 55.4806C132.5 63.9806 139.2 75.8806 146 55.4806C147.167 47.6473 151.3 35.4806 158.5 49.4806C160.333 54.8139 165.7 63.4806 172.5 55.4806C181 45.4806 184.5 58.4806 188 67.4806C190.333 70.8139 195.8 74.6806 199 63.4806C201.333 56.8139 207.7 45.8806 214.5 55.4806C217.167 59.4806 224.2 63.8806 231 49.4806C232.5 46.9806 236.6 41.9806 241 41.9806C244 40.4806 251.2 33.2806 256 16.4806C258.333 8.64728 264 -3.51938 268 10.4806C269.333 18.1471 274.7 31.18 285.5 21.9803C288.833 17.147 296.6 6.78029 301 3.98029C303 0.313625 310.3 -4.11971 323.5 7.48029C325.667 10.4804 332.5 16.4806 342.5 16.4806C348.833 20.6474 363.8 26.4809 373 16.4806C378 13.8139 389 12.5804 393 28.9805C396.333 35.8138 404.1 45.8805 408.5 31.4805C410.333 24.3139 417.2 16.3807 430 41.9806" stroke="url(#paint0_linear_1_662)" stroke-width="0.007111"/>
  <defs>
    <linearGradient id="paint0_linear_1_662" x1="386" y1="29" x2="78" y2="79" gradientUnits="userSpaceOnUse">
      <stop stop-color="#4CBD97" stop-opacity="0"/>
      <stop offset="1" stop-color="#4CBD97"/>
    </linearGradient>
  </defs>
</svg>